<mxfile host="app.diagrams.net" modified="2023-05-05T17:58:14.706Z" agent="Mozilla/5.0 (Macintosh; Intel Mac OS X 10_15_7) AppleWebKit/605.1.15 (KHTML, like Gecko) Version/16.4 Safari/605.1.15" etag="2J75bSjaED91JfVpFvF0" version="21.2.7" type="github">
  <diagram name="Страница 1" id="R_ZGKATnrK1r-uJRlvKJ">
    <mxGraphModel dx="1252" dy="1023" grid="1" gridSize="17.7165" guides="1" tooltips="1" connect="1" arrows="1" fold="1" page="1" pageScale="1" pageWidth="827" pageHeight="1169" math="0" shadow="0">
      <root>
        <mxCell id="0" />
        <mxCell id="1" parent="0" />
        <mxCell id="FtEJgr0EtX01slGwjfFq-1" value="" style="rounded=0;whiteSpace=wrap;html=1;" vertex="1" parent="1">
          <mxGeometry x="70.87" y="425.2" width="1062.99" height="70.86" as="geometry" />
        </mxCell>
        <mxCell id="FtEJgr0EtX01slGwjfFq-2" value="" style="rounded=0;whiteSpace=wrap;html=1;" vertex="1" parent="1">
          <mxGeometry x="141.73" y="283.46" width="141.73" height="354.33" as="geometry" />
        </mxCell>
        <mxCell id="FtEJgr0EtX01slGwjfFq-3" value="" style="ellipse;whiteSpace=wrap;html=1;aspect=fixed;" vertex="1" parent="1">
          <mxGeometry x="176.45999999999998" y="283.46000000000004" width="35.78" height="35.78" as="geometry" />
        </mxCell>
        <mxCell id="FtEJgr0EtX01slGwjfFq-4" value="" style="ellipse;whiteSpace=wrap;html=1;aspect=fixed;" vertex="1" parent="1">
          <mxGeometry x="211.54649999999998" y="283.4565" width="35.78" height="35.78" as="geometry" />
        </mxCell>
        <mxCell id="FtEJgr0EtX01slGwjfFq-44" style="edgeStyle=orthogonalEdgeStyle;rounded=0;orthogonalLoop=1;jettySize=auto;html=1;entryX=0.5;entryY=0;entryDx=0;entryDy=0;" edge="1" parent="1" source="FtEJgr0EtX01slGwjfFq-5" target="FtEJgr0EtX01slGwjfFq-30">
          <mxGeometry relative="1" as="geometry">
            <Array as="points">
              <mxPoint x="194" y="691" />
              <mxPoint x="337" y="691" />
              <mxPoint x="337" y="248" />
              <mxPoint x="373" y="248" />
            </Array>
          </mxGeometry>
        </mxCell>
        <mxCell id="FtEJgr0EtX01slGwjfFq-5" value="" style="ellipse;whiteSpace=wrap;html=1;aspect=fixed;" vertex="1" parent="1">
          <mxGeometry x="176.463" y="602.023" width="35.78" height="35.78" as="geometry" />
        </mxCell>
        <mxCell id="FtEJgr0EtX01slGwjfFq-42" style="edgeStyle=orthogonalEdgeStyle;rounded=0;orthogonalLoop=1;jettySize=auto;html=1;" edge="1" parent="1" source="FtEJgr0EtX01slGwjfFq-6" target="FtEJgr0EtX01slGwjfFq-31">
          <mxGeometry relative="1" as="geometry">
            <Array as="points">
              <mxPoint x="231" y="673" />
              <mxPoint x="301" y="673" />
              <mxPoint x="301" y="230" />
              <mxPoint x="408" y="230" />
            </Array>
          </mxGeometry>
        </mxCell>
        <mxCell id="FtEJgr0EtX01slGwjfFq-6" value="" style="ellipse;whiteSpace=wrap;html=1;aspect=fixed;" vertex="1" parent="1">
          <mxGeometry x="212.9395" y="602.0195" width="35.78" height="35.78" as="geometry" />
        </mxCell>
        <mxCell id="FtEJgr0EtX01slGwjfFq-29" value="" style="rounded=0;whiteSpace=wrap;html=1;" vertex="1" parent="1">
          <mxGeometry x="355.03" y="283.48" width="70.16" height="354.33" as="geometry" />
        </mxCell>
        <mxCell id="FtEJgr0EtX01slGwjfFq-30" value="" style="ellipse;whiteSpace=wrap;html=1;aspect=fixed;" vertex="1" parent="1">
          <mxGeometry x="355.02649999999994" y="283.47650000000004" width="35.78" height="35.78" as="geometry" />
        </mxCell>
        <mxCell id="FtEJgr0EtX01slGwjfFq-31" value="" style="ellipse;whiteSpace=wrap;html=1;aspect=fixed;" vertex="1" parent="1">
          <mxGeometry x="390.11299999999994" y="283.473" width="35.78" height="35.78" as="geometry" />
        </mxCell>
        <mxCell id="FtEJgr0EtX01slGwjfFq-32" value="" style="ellipse;whiteSpace=wrap;html=1;aspect=fixed;" vertex="1" parent="1">
          <mxGeometry x="354.32949999999994" y="602.0295" width="35.78" height="35.78" as="geometry" />
        </mxCell>
        <mxCell id="FtEJgr0EtX01slGwjfFq-33" value="" style="ellipse;whiteSpace=wrap;html=1;aspect=fixed;" vertex="1" parent="1">
          <mxGeometry x="390.80600000000004" y="602.026" width="35.78" height="35.78" as="geometry" />
        </mxCell>
        <mxCell id="FtEJgr0EtX01slGwjfFq-34" value="" style="rounded=0;whiteSpace=wrap;html=1;" vertex="1" parent="1">
          <mxGeometry x="425.19000000000005" y="283.46" width="72.97" height="354.33" as="geometry" />
        </mxCell>
        <mxCell id="FtEJgr0EtX01slGwjfFq-35" value="" style="ellipse;whiteSpace=wrap;html=1;aspect=fixed;" vertex="1" parent="1">
          <mxGeometry x="427.2829999999999" y="283.463" width="35.78" height="35.78" as="geometry" />
        </mxCell>
        <mxCell id="FtEJgr0EtX01slGwjfFq-36" value="" style="ellipse;whiteSpace=wrap;html=1;aspect=fixed;" vertex="1" parent="1">
          <mxGeometry x="462.3694999999999" y="283.4595" width="35.78" height="35.78" as="geometry" />
        </mxCell>
        <mxCell id="FtEJgr0EtX01slGwjfFq-37" value="" style="ellipse;whiteSpace=wrap;html=1;aspect=fixed;" vertex="1" parent="1">
          <mxGeometry x="426.5859999999999" y="602.016" width="35.78" height="35.78" as="geometry" />
        </mxCell>
        <mxCell id="FtEJgr0EtX01slGwjfFq-38" value="" style="ellipse;whiteSpace=wrap;html=1;aspect=fixed;" vertex="1" parent="1">
          <mxGeometry x="463.0625" y="602.0124999999999" width="35.78" height="35.78" as="geometry" />
        </mxCell>
        <mxCell id="FtEJgr0EtX01slGwjfFq-52" value="" style="rounded=0;whiteSpace=wrap;html=1;" vertex="1" parent="1">
          <mxGeometry x="498.14650000000006" y="283.4565" width="72.97" height="354.33" as="geometry" />
        </mxCell>
        <mxCell id="FtEJgr0EtX01slGwjfFq-53" value="" style="ellipse;whiteSpace=wrap;html=1;aspect=fixed;" vertex="1" parent="1">
          <mxGeometry x="500.2394999999999" y="283.45950000000005" width="35.78" height="35.78" as="geometry" />
        </mxCell>
        <mxCell id="FtEJgr0EtX01slGwjfFq-54" value="" style="ellipse;whiteSpace=wrap;html=1;aspect=fixed;" vertex="1" parent="1">
          <mxGeometry x="535.3259999999999" y="283.456" width="35.78" height="35.78" as="geometry" />
        </mxCell>
        <mxCell id="FtEJgr0EtX01slGwjfFq-55" value="" style="ellipse;whiteSpace=wrap;html=1;aspect=fixed;" vertex="1" parent="1">
          <mxGeometry x="499.5424999999999" y="602.0124999999999" width="35.78" height="35.78" as="geometry" />
        </mxCell>
        <mxCell id="FtEJgr0EtX01slGwjfFq-56" value="" style="ellipse;whiteSpace=wrap;html=1;aspect=fixed;" vertex="1" parent="1">
          <mxGeometry x="536.019" y="602.0089999999999" width="35.78" height="35.78" as="geometry" />
        </mxCell>
        <mxCell id="FtEJgr0EtX01slGwjfFq-57" value="" style="rounded=0;whiteSpace=wrap;html=1;" vertex="1" parent="1">
          <mxGeometry x="571.8030000000001" y="283.453" width="72.97" height="354.33" as="geometry" />
        </mxCell>
        <mxCell id="FtEJgr0EtX01slGwjfFq-58" value="" style="ellipse;whiteSpace=wrap;html=1;aspect=fixed;" vertex="1" parent="1">
          <mxGeometry x="573.896" y="283.456" width="35.78" height="35.78" as="geometry" />
        </mxCell>
        <mxCell id="FtEJgr0EtX01slGwjfFq-59" value="" style="ellipse;whiteSpace=wrap;html=1;aspect=fixed;" vertex="1" parent="1">
          <mxGeometry x="608.9824999999998" y="283.4525" width="35.78" height="35.78" as="geometry" />
        </mxCell>
        <mxCell id="FtEJgr0EtX01slGwjfFq-60" value="" style="ellipse;whiteSpace=wrap;html=1;aspect=fixed;" vertex="1" parent="1">
          <mxGeometry x="573.1989999999998" y="602.009" width="35.78" height="35.78" as="geometry" />
        </mxCell>
        <mxCell id="FtEJgr0EtX01slGwjfFq-61" value="" style="ellipse;whiteSpace=wrap;html=1;aspect=fixed;" vertex="1" parent="1">
          <mxGeometry x="609.6755" y="602.0055" width="35.78" height="35.78" as="geometry" />
        </mxCell>
        <mxCell id="FtEJgr0EtX01slGwjfFq-62" value="" style="rounded=0;whiteSpace=wrap;html=1;" vertex="1" parent="1">
          <mxGeometry x="645.4595" y="283.4795" width="72.97" height="354.33" as="geometry" />
        </mxCell>
        <mxCell id="FtEJgr0EtX01slGwjfFq-63" value="" style="ellipse;whiteSpace=wrap;html=1;aspect=fixed;" vertex="1" parent="1">
          <mxGeometry x="647.5524999999999" y="283.4825" width="35.78" height="35.78" as="geometry" />
        </mxCell>
        <mxCell id="FtEJgr0EtX01slGwjfFq-64" value="" style="ellipse;whiteSpace=wrap;html=1;aspect=fixed;" vertex="1" parent="1">
          <mxGeometry x="682.6389999999999" y="283.479" width="35.78" height="35.78" as="geometry" />
        </mxCell>
        <mxCell id="FtEJgr0EtX01slGwjfFq-65" value="" style="ellipse;whiteSpace=wrap;html=1;aspect=fixed;" vertex="1" parent="1">
          <mxGeometry x="646.8554999999999" y="602.0355" width="35.78" height="35.78" as="geometry" />
        </mxCell>
        <mxCell id="FtEJgr0EtX01slGwjfFq-66" value="" style="ellipse;whiteSpace=wrap;html=1;aspect=fixed;" vertex="1" parent="1">
          <mxGeometry x="683.332" y="602.0319999999999" width="35.78" height="35.78" as="geometry" />
        </mxCell>
        <mxCell id="FtEJgr0EtX01slGwjfFq-67" value="" style="rounded=0;whiteSpace=wrap;html=1;" vertex="1" parent="1">
          <mxGeometry x="719.116" y="283.486" width="72.97" height="354.33" as="geometry" />
        </mxCell>
        <mxCell id="FtEJgr0EtX01slGwjfFq-68" value="" style="ellipse;whiteSpace=wrap;html=1;aspect=fixed;" vertex="1" parent="1">
          <mxGeometry x="721.2089999999998" y="283.48900000000003" width="35.78" height="35.78" as="geometry" />
        </mxCell>
        <mxCell id="FtEJgr0EtX01slGwjfFq-69" value="" style="ellipse;whiteSpace=wrap;html=1;aspect=fixed;" vertex="1" parent="1">
          <mxGeometry x="756.2955" y="283.4855" width="35.78" height="35.78" as="geometry" />
        </mxCell>
        <mxCell id="FtEJgr0EtX01slGwjfFq-70" value="" style="ellipse;whiteSpace=wrap;html=1;aspect=fixed;" vertex="1" parent="1">
          <mxGeometry x="720.512" y="602.0419999999999" width="35.78" height="35.78" as="geometry" />
        </mxCell>
        <mxCell id="FtEJgr0EtX01slGwjfFq-71" value="" style="ellipse;whiteSpace=wrap;html=1;aspect=fixed;" vertex="1" parent="1">
          <mxGeometry x="756.9884999999999" y="602.0384999999999" width="35.78" height="35.78" as="geometry" />
        </mxCell>
        <mxCell id="FtEJgr0EtX01slGwjfFq-73" value="" style="rounded=0;whiteSpace=wrap;html=1;" vertex="1" parent="1">
          <mxGeometry x="330.11" y="779.53" width="236.82" height="354.33" as="geometry" />
        </mxCell>
        <mxCell id="FtEJgr0EtX01slGwjfFq-74" value="" style="ellipse;whiteSpace=wrap;html=1;aspect=fixed;" vertex="1" parent="1">
          <mxGeometry x="341" y="797.24" width="17.72" height="17.72" as="geometry" />
        </mxCell>
        <mxCell id="FtEJgr0EtX01slGwjfFq-78" value="" style="ellipse;whiteSpace=wrap;html=1;aspect=fixed;" vertex="1" parent="1">
          <mxGeometry x="358.7165" y="797.2365" width="17.72" height="17.72" as="geometry" />
        </mxCell>
        <mxCell id="FtEJgr0EtX01slGwjfFq-79" value="" style="ellipse;whiteSpace=wrap;html=1;aspect=fixed;" vertex="1" parent="1">
          <mxGeometry x="376.433" y="797.243" width="17.72" height="17.72" as="geometry" />
        </mxCell>
        <mxCell id="FtEJgr0EtX01slGwjfFq-80" value="" style="ellipse;whiteSpace=wrap;html=1;aspect=fixed;" vertex="1" parent="1">
          <mxGeometry x="404.9995" y="797.2395" width="17.72" height="17.72" as="geometry" />
        </mxCell>
        <mxCell id="FtEJgr0EtX01slGwjfFq-81" value="" style="ellipse;whiteSpace=wrap;html=1;aspect=fixed;" vertex="1" parent="1">
          <mxGeometry x="436.316" y="797.236" width="17.72" height="17.72" as="geometry" />
        </mxCell>
        <mxCell id="FtEJgr0EtX01slGwjfFq-82" value="" style="ellipse;whiteSpace=wrap;html=1;aspect=fixed;" vertex="1" parent="1">
          <mxGeometry x="471.39649999999995" y="797.2365" width="17.72" height="17.72" as="geometry" />
        </mxCell>
        <mxCell id="FtEJgr0EtX01slGwjfFq-83" value="" style="ellipse;whiteSpace=wrap;html=1;aspect=fixed;" vertex="1" parent="1">
          <mxGeometry x="498.79299999999995" y="797.2429999999999" width="17.72" height="17.72" as="geometry" />
        </mxCell>
        <mxCell id="FtEJgr0EtX01slGwjfFq-84" value="" style="ellipse;whiteSpace=wrap;html=1;aspect=fixed;" vertex="1" parent="1">
          <mxGeometry x="516.5095" y="797.2495" width="17.72" height="17.72" as="geometry" />
        </mxCell>
        <mxCell id="FtEJgr0EtX01slGwjfFq-85" value="" style="ellipse;whiteSpace=wrap;html=1;aspect=fixed;" vertex="1" parent="1">
          <mxGeometry x="536.076" y="797.246" width="17.72" height="17.72" as="geometry" />
        </mxCell>
      </root>
    </mxGraphModel>
  </diagram>
</mxfile>
